<svg width="2403" height="1108" xmlns="http://www.w3.org/2000/svg" xmlns:xlink="http://www.w3.org/1999/xlink" xml:space="preserve" overflow="hidden"><g transform="translate(-63 -968)"><text fill="#1C63B7" font-family="Arial Narrow,Arial Narrow_MSFontService,sans-serif" font-weight="700" font-stretch="condensed" font-size="527" transform="matrix(1 0 0 1 380.483 1643)">CURE</text><text fill="#00B0F0" font-family="Arial,Arial_MSFontService,sans-serif" font-weight="700" font-size="303" transform="matrix(1 0 0 1 1577.19 1621)">.</text><text fill="#00B0F0" font-family="Arial,Arial_MSFontService,sans-serif" font-weight="700" font-size="303" transform="matrix(1 0 0 1 1661.41 1621)">Inha</text><path d="M400.5 1637.5 2290.9 1637.5" stroke="#1C63B7" stroke-width="20.625" stroke-miterlimit="8" fill="none" fill-rule="evenodd"/><text fill="#1C63B7" font-family="Arial,Arial_MSFontService,sans-serif" font-weight="700" font-size="83" transform="matrix(1 0 0 1 395.782 1733)">C</text><text fill="#33BDF2" font-family="Arial,Arial_MSFontService,sans-serif" font-weight="400" font-size="83" transform="matrix(1 0 0 1 455.365 1733)">enter</text><text fill="#33BDF2" font-family="Arial,Arial_MSFontService,sans-serif" font-weight="400" font-size="83" transform="matrix(1 0 0 1 666.198 1733)">for</text><text fill="#1C63B7" font-family="Arial,Arial_MSFontService,sans-serif" font-weight="700" font-size="83" transform="matrix(1 0 0 1 785.365 1733)">U</text><text fill="#33BDF2" font-family="Arial,Arial_MSFontService,sans-serif" font-weight="400" font-size="83" transform="matrix(1 0 0 1 844.948 1733)">nconventional</text><text fill="#1C63B7" font-family="Arial,Arial_MSFontService,sans-serif" font-weight="700" font-size="83" transform="matrix(1 0 0 1 1376.61 1733)">R</text><text fill="#33BDF2" font-family="Arial,Arial_MSFontService,sans-serif" font-weight="400" font-size="83" transform="matrix(1 0 0 1 1436.2 1733)">esources</text><text fill="#33BDF2" font-family="Arial,Arial_MSFontService,sans-serif" font-weight="400" font-size="83" transform="matrix(1 0 0 1 1793.7 1733)">and</text><text fill="#1C63B7" font-family="Arial,Arial_MSFontService,sans-serif" font-weight="700" font-size="83" transform="matrix(1 0 0 1 1954.11 1733)">E</text><text fill="#33BDF2" font-family="Arial,Arial_MSFontService,sans-serif" font-weight="400" font-size="83" transform="matrix(1 0 0 1 2009.11 1733)">nergy</text><text fill="#00B0F0" font-family="Malgun Gothic,Malgun Gothic_MSFontService,sans-serif" font-weight="400" font-size="73" transform="matrix(1 0 0 1 1611.03 1839)">비전통에너지연구실</text><rect x="334.5" y="1111.5" width="2026" height="833" stroke="#FFFFFF" stroke-width="4.58333" stroke-miterlimit="8" fill="none"/></g></svg>