<svg width="2903" height="1297" xmlns="http://www.w3.org/2000/svg" xmlns:xlink="http://www.w3.org/1999/xlink" xml:space="preserve" overflow="hidden"><g transform="translate(-1155 -1078)"><path d="M1185.5 1726.5C1185.5 1374.14 1826.18 1088.5 2616.5 1088.5 3406.82 1088.5 4047.5 1374.14 4047.5 1726.5 4047.5 2078.86 3406.82 2364.5 2616.5 2364.5 1826.18 2364.5 1185.5 2078.86 1185.5 1726.5Z" stroke="#A6A6A6" stroke-width="20.625" stroke-miterlimit="8" fill="#FFFFFF" fill-rule="evenodd"/><text fill="#33BDF2" font-family="Avenir Next LT Pro,Avenir Next LT Pro_MSFontService,sans-serif" font-weight="700" font-size="527" transform="matrix(1 0 0 1 1502.48 1819)">CURE</text><text fill="#1C63B7" font-family="Avenir Next LT Pro,Avenir Next LT Pro_MSFontService,sans-serif" font-weight="700" font-size="527" transform="matrix(1 0 0 1 1472.21 1793)">CURE</text><text fill="#33BDF2" font-family="Avenir Next LT Pro,Avenir Next LT Pro_MSFontService,sans-serif" font-weight="700" font-size="303" transform="matrix(1 0 0 1 3038.16 1811)">Inha</text><path d="M2937.5 1781C2937.5 1760.29 2954.51 1743.5 2975.5 1743.5 2996.49 1743.5 3013.5 1760.29 3013.5 1781 3013.5 1801.71 2996.49 1818.5 2975.5 1818.5 2954.51 1818.5 2937.5 1801.71 2937.5 1781Z" stroke="#1C63B7" stroke-width="4.58333" stroke-miterlimit="8" fill="#1C63B7" fill-rule="evenodd"/><text fill="#A6A6A6" font-family="Avenir Next LT Pro,Avenir Next LT Pro_MSFontService,sans-serif" font-style="italic" font-weight="700" font-size="73" transform="matrix(1 0 0 1 3301.26 1496)">Since</text><text fill="#A6A6A6" font-family="Arial,Arial_MSFontService,sans-serif" font-style="italic" font-weight="700" font-size="73" transform="matrix(1 0 0 1 3478.91 1496)">201</text><text fill="#A6A6A6" font-family="Arial,Arial_MSFontService,sans-serif" font-style="italic" font-weight="700" font-size="73" transform="matrix(1 0 0 1 3595.48 1496)">1</text><path d="M3069.5 1533.5 3645.06 1533.5" stroke="#A6A6A6" stroke-width="20.625" stroke-miterlimit="8" fill="none" fill-rule="evenodd"/><text fill="#1C63B7" font-family="Avenir Next LT Pro,Avenir Next LT Pro_MSFontService,sans-serif" font-weight="700" font-size="83" transform="matrix(1 0 0 1 1563.92 1949)">C</text><text fill="#33BDF2" font-family="Avenir Next LT Pro,Avenir Next LT Pro_MSFontService,sans-serif" font-weight="400" font-size="83" transform="matrix(1 0 0 1 1621.22 1949)">enter</text><text fill="#33BDF2" font-family="Avenir Next LT Pro,Avenir Next LT Pro_MSFontService,sans-serif" font-weight="400" font-size="83" transform="matrix(1 0 0 1 1840.07 1949)">for</text><text fill="#1C63B7" font-family="Avenir Next LT Pro,Avenir Next LT Pro_MSFontService,sans-serif" font-weight="700" font-size="83" transform="matrix(1 0 0 1 1964.97 1949)">U</text><text fill="#33BDF2" font-family="Avenir Next LT Pro,Avenir Next LT Pro_MSFontService,sans-serif" font-weight="400" font-size="83" transform="matrix(1 0 0 1 2025.7 1949)">nconventional</text><text fill="#1C63B7" font-family="Avenir Next LT Pro,Avenir Next LT Pro_MSFontService,sans-serif" font-weight="700" font-size="83" transform="matrix(1 0 0 1 2579.71 1949)">R</text><text fill="#33BDF2" font-family="Avenir Next LT Pro,Avenir Next LT Pro_MSFontService,sans-serif" font-weight="400" font-size="83" transform="matrix(1 0 0 1 2634.13 1949)">esources</text><text fill="#33BDF2" font-family="Avenir Next LT Pro,Avenir Next LT Pro_MSFontService,sans-serif" font-weight="400" font-size="83" transform="matrix(1 0 0 1 2990.14 1949)">and</text><text fill="#1C63B7" font-family="Avenir Next LT Pro,Avenir Next LT Pro_MSFontService,sans-serif" font-weight="700" font-size="83" transform="matrix(1 0 0 1 3155.72 1949)">E</text><text fill="#33BDF2" font-family="Avenir Next LT Pro,Avenir Next LT Pro_MSFontService,sans-serif" font-weight="400" font-size="83" transform="matrix(1 0 0 1 3205.56 1949)">nergy</text><path d="M1536.5 1853.5 3673.79 1853.5" stroke="#1C63B7" stroke-width="20.625" stroke-miterlimit="8" fill="none" fill-rule="evenodd"/><text fill="#33BDF2" font-family="HYGothic-Medium,HYGothic-Medium_MSFontService,sans-serif" font-weight="700" font-size="73" transform="matrix(1 0 0 1 2635.87 2044)">인하대학교</text><text fill="#33BDF2" font-family="HYGothic-Medium,HYGothic-Medium_MSFontService,sans-serif" font-weight="700" font-size="73" transform="matrix(1 0 0 1 3020.87 2044)">비전통에너지연구실</text></g></svg>